<svg width="10" height="10" viewBox="0 0 10 10" fill="none" xmlns="http://www.w3.org/2000/svg">
<g clip-path="url(#clip0_2_25)">
<path d="M9.893 9.2785L7.3465 6.732C7.95495 6.00062 8.28649 5.07838 8.283 4.127C8.2535 1.8735 6.41 0 4.127 0C1.844 0 0 1.873 0 4.127C0 6.381 1.844 8.283 4.127 8.283C5.1515 8.283 6.0585 7.9025 6.7905 7.317L9.337 9.8635C9.37037 9.90025 9.41104 9.92964 9.45641 9.94978C9.50179 9.96993 9.55086 9.98039 9.6005 9.9805C9.6885 9.9805 9.8055 9.951 9.864 9.8635C10.0395 9.688 10.0395 9.4245 9.8935 9.278L9.893 9.2785ZM0.7905 4.127C0.790303 3.68879 0.876469 3.25484 1.04407 2.84994C1.21168 2.44505 1.45744 2.07716 1.7673 1.7673C2.07716 1.45744 2.44505 1.21168 2.84994 1.04407C3.25484 0.876469 3.68879 0.790303 4.127 0.7905C4.56521 0.790303 4.99916 0.876469 5.40406 1.04407C5.80895 1.21168 6.17684 1.45744 6.4867 1.7673C6.79656 2.07716 7.04232 2.44505 7.20993 2.84994C7.37753 3.25484 7.4637 3.68879 7.4635 4.127C7.4635 5.971 5.971 7.493 4.127 7.493C2.283 7.493 0.7905 6.0005 0.7905 4.127Z" fill="#767676"/>
</g>
<defs>
<clipPath id="clip0_2_25">
<rect width="10" height="10" fill="white"/>
</clipPath>
</defs>
</svg>
